<?xml version="1.0" standalone="no"?><!DOCTYPE svg PUBLIC "-//W3C//DTD SVG 1.1//EN" "http://www.w3.org/Graphics/SVG/1.1/DTD/svg11.dtd"><svg t="1581653185432" class="icon" viewBox="0 0 1024 1024" version="1.1" xmlns="http://www.w3.org/2000/svg" p-id="2682" xmlns:xlink="http://www.w3.org/1999/xlink" width="64" height="64"><defs><style type="text/css"></style></defs><path d="M512 907.199c-18.537 0-35.9-7.255-48.92-20.434L140.375 560.377C83.403 502.75 56.896 423.089 67.632 341.8c10.67-80.635 57.475-150.633 128.456-192.045 99.382-57.995 228.642-37.99 314.301 48.659l1.611 1.627 1.61-1.627c85.677-86.666 214.953-106.654 314.302-48.66 70.98 41.421 117.786 111.42 128.456 192.055 10.736 81.28-15.77 160.95-72.742 218.568L560.903 886.782c-13.002 13.16-30.366 20.417-48.903 20.417zM319.14 185.496c-30.767 0-61.182 7.708-88.426 23.603-52.493 30.634-87.102 82.28-94.954 141.709-7.935 60.075 11.542 118.85 53.466 161.252l322.723 326.406L834.772 512.06c41.924-42.401 61.4-101.177 53.466-161.244-7.85-59.43-42.46-111.075-94.954-141.708-72.322-42.21-167.224-26.725-230.823 37.62l-26.037 26.331c-12.884 13.052-35.968 13.052-48.852 0l-26.037-26.33c-39.657-40.103-91.479-61.233-142.394-61.233zM859.2 536.219h0.167-0.167z" p-id="2683" fill="#bfbfbf"></path><path d="M461.252 546.623l-60.736 60.736-170.061-170.061c-26.835-26.836-26.835-70.343 0-97.179l12.147-12.147 218.65 218.65z" p-id="2684" fill="#bfbfbf"></path></svg>