<?xml version="1.0" standalone="no"?><!DOCTYPE svg PUBLIC "-//W3C//DTD SVG 1.1//EN" "http://www.w3.org/Graphics/SVG/1.1/DTD/svg11.dtd"><svg class="icon" width="64px" height="64.00px" viewBox="0 0 1024 1024" version="1.1" xmlns="http://www.w3.org/2000/svg"><path fill="#bfbfbf" d="M984.60937443 775.69744555H244.19820999c-21.94242333 0-42.52558222-8.54395221-57.86585999-24.0784111-15.3402789-15.53445888-23.88423111-35.92343666-23.69005112-57.86586112l2.71853112-545.25952c0-21.74824334-7.57304889-36.3117989-45.24411334-42.3314011h-0.19417999l-108.74121557-18.64135111c-10.48576-1.74762667-17.67044779-11.84502557-15.92281998-22.33078557 1.74762667-10.48576 11.84502557-17.67044779 22.33078442-15.92282112l108.54703446 18.64135112c51.65207666 8.15559111 77.86647666 35.34089443 77.86647666 80.7791889L201.28426666 694.14153443c0 11.45666333 4.27197667 22.13660445 12.42756779 30.09801558 8.15559111 8.15559111 18.83553223 12.62174777 30.29219555 12.62174777h740.41116445c10.67994112 0 19.41807445 8.73813333 19.41807331 19.41807445s-8.54395221 19.41807445-19.22389333 19.41807332z"  /><path fill="#bfbfbf" d="M929.26786332 664.23770112l-685.65219556-2.13598891c-21.55406222-0.19418112-41.74885888-8.54395221-56.89495665-23.88423111-15.14609778-15.3402789-23.30168889-35.53507555-23.30168889-57.08913777l2.13598777-402.73085554L941.30707 236.26334777c35.14671445 1.35926557 62.72037888 29.90383445 62.72037888 65.0505489V589.67229667c0 41.16631666-33.59326777 74.56540445-74.75958556 74.56540445zM244.00403 623.26556445l685.45801444 2.13598776c19.80643555 0 35.92343666-16.1170011 35.92343666-35.72925554V301.31389667c0-14.17519445-11.26248334-25.8260389-25.43767666-26.2144h-0.77672334l-734.58574222-54.75896888-1.74762667 361.17617778c0 11.06830222 4.27197667 21.55406222 12.03920669 29.51547221 7.37886777 7.76723001 17.86462777 12.23338667 29.1271111 12.23338667z"  /><path fill="#bfbfbf" d="M319.54033778 839.77708999m-72.42941668 0a72.42941667 72.42941667 0 1 0 144.85883335 0 72.42941667 72.42941667 0 1 0-144.85883335 0Z"  /><path fill="#bfbfbf" d="M319.54033778 931.62458112c-50.68117333 0-91.84748999-41.16631666-91.84749-91.84749113s41.16631666-91.84748999 91.84749-91.84748999c50.68117333 0 91.84748999 41.16631666 91.84748998 91.84748999s-41.16631666 91.84748999-91.84748998 91.84749113z m0-144.85883335c-29.32129223 0-53.01134222 23.69004999-53.01134223 53.01134222s23.69004999 53.01134222 53.01134223 53.01134222 53.01134222-23.69004999 53.01134222-53.01134222-23.69004999-53.01134222-53.01134222-53.01134222z"  /><path fill="#bfbfbf" d="M875.4797989 839.77708999m-72.42941668 0a72.42941667 72.42941667 0 1 0 144.85883221 0 72.42941667 72.42941667 0 1 0-144.85883221 0Z"  /><path fill="#bfbfbf" d="M875.4797989 931.62458112c-50.68117333 0-91.84748999-41.16631666-91.84749114-91.84749113s41.16631666-91.84748999 91.84749114-91.84748999 91.84748999 41.16631666 91.84748998 91.84748999-41.16631666 91.84748999-91.84748998 91.84749113z m0-144.85883335c-29.32129223 0-53.01134222 23.69004999-53.01134223 53.01134222s23.69004999 53.01134222 53.01134223 53.01134222 53.01134222-23.69004999 53.01134222-53.01134222-23.69004999-53.01134222-53.01134222-53.01134222z"  /><path fill="#bfbfbf" d="M758.97135445 405.00641223H363.23100444c-10.67994112 0-19.41807445-8.73813333-19.41807445-19.41807445s8.73813333-19.41807445 19.41807445-19.41807445h395.74035001c10.67994112 0 19.41807445 8.73813333 19.41807331 19.41807445s-8.73813333 19.41807445-19.41807331 19.41807445zM758.97135445 516.66033778H363.23100444c-10.67994112 0-19.41807445-8.73813333-19.41807445-19.41807445s8.73813333-19.41807445 19.41807445-19.41807332h395.74035001c10.67994112 0 19.41807445 8.73813333 19.41807331 19.41807332s-8.73813333 19.41807445-19.41807331 19.41807445z"  /></svg>